<mxfile>
    <diagram id="8HJ7UO_u7sUJo6Vm2NjV" name="Page-1">
        <mxGraphModel dx="989" dy="869" grid="1" gridSize="10" guides="1" tooltips="1" connect="1" arrows="1" fold="1" page="1" pageScale="1" pageWidth="850" pageHeight="1100" math="0" shadow="0">
            <root>
                <mxCell id="0"/>
                <mxCell id="1" parent="0"/>
                <mxCell id="56" style="edgeStyle=orthogonalEdgeStyle;rounded=0;orthogonalLoop=1;jettySize=auto;html=1;strokeWidth=2;fillColor=#f8cecc;strokeColor=#b85450;exitX=1;exitY=0.25;exitDx=0;exitDy=0;" parent="1" source="94" target="51" edge="1">
                    <mxGeometry relative="1" as="geometry">
                        <mxPoint x="328" y="384" as="sourcePoint"/>
                        <Array as="points">
                            <mxPoint x="514" y="327"/>
                        </Array>
                    </mxGeometry>
                </mxCell>
                <mxCell id="73" value="no TLS" style="edgeLabel;html=1;align=center;verticalAlign=middle;resizable=0;points=[];" vertex="1" connectable="0" parent="56">
                    <mxGeometry x="0.1967" y="-1" relative="1" as="geometry">
                        <mxPoint x="1" y="51.16" as="offset"/>
                    </mxGeometry>
                </mxCell>
                <mxCell id="58" style="edgeStyle=orthogonalEdgeStyle;rounded=0;orthogonalLoop=1;jettySize=auto;html=1;strokeWidth=2;fillColor=#d5e8d4;strokeColor=#82b366;" parent="1" target="43" edge="1">
                    <mxGeometry relative="1" as="geometry">
                        <Array as="points">
                            <mxPoint x="304" y="480"/>
                            <mxPoint x="264" y="480"/>
                        </Array>
                        <mxPoint x="304" y="408" as="sourcePoint"/>
                    </mxGeometry>
                </mxCell>
                <mxCell id="59" style="edgeStyle=orthogonalEdgeStyle;rounded=0;orthogonalLoop=1;jettySize=auto;html=1;strokeWidth=2;fillColor=#d5e8d4;strokeColor=#82b366;" parent="1" target="44" edge="1">
                    <mxGeometry relative="1" as="geometry">
                        <Array as="points">
                            <mxPoint x="304" y="480"/>
                            <mxPoint x="340" y="480"/>
                        </Array>
                        <mxPoint x="304" y="408" as="sourcePoint"/>
                    </mxGeometry>
                </mxCell>
                <mxCell id="60" style="edgeStyle=orthogonalEdgeStyle;rounded=0;orthogonalLoop=1;jettySize=auto;html=1;strokeWidth=2;fillColor=#d5e8d4;strokeColor=#82b366;exitX=0;exitY=0.5;exitDx=0;exitDy=0;" parent="1" source="94" target="42" edge="1">
                    <mxGeometry relative="1" as="geometry">
                        <Array as="points">
                            <mxPoint x="220" y="354"/>
                            <mxPoint x="174" y="354"/>
                        </Array>
                        <mxPoint x="280" y="384" as="sourcePoint"/>
                    </mxGeometry>
                </mxCell>
                <mxCell id="69" value="HTTPS" style="edgeLabel;html=1;align=center;verticalAlign=middle;resizable=0;points=[];" vertex="1" connectable="0" parent="60">
                    <mxGeometry x="0.0069" relative="1" as="geometry">
                        <mxPoint x="-0.03999999999999959" y="34.68" as="offset"/>
                    </mxGeometry>
                </mxCell>
                <mxCell id="42" value="Amazon S3&lt;br&gt;object storage" style="outlineConnect=0;fontColor=#232F3E;gradientColor=none;fillColor=#277116;strokeColor=none;dashed=0;verticalLabelPosition=bottom;verticalAlign=top;align=center;html=1;fontSize=12;fontStyle=0;aspect=fixed;pointerEvents=1;shape=mxgraph.aws4.bucket_with_objects;" parent="1" vertex="1">
                    <mxGeometry x="147.75" y="530" width="48.08" height="50" as="geometry"/>
                </mxCell>
                <mxCell id="43" value="Amazon&lt;br&gt;Aurora" style="outlineConnect=0;fontColor=#232F3E;gradientColor=#4D72F3;gradientDirection=north;fillColor=#3334B9;strokeColor=#ffffff;dashed=0;verticalLabelPosition=bottom;verticalAlign=top;align=center;html=1;fontSize=12;fontStyle=0;aspect=fixed;shape=mxgraph.aws4.resourceIcon;resIcon=mxgraph.aws4.aurora;" parent="1" vertex="1">
                    <mxGeometry x="237.75" y="532.75" width="47.25" height="47.25" as="geometry"/>
                </mxCell>
                <mxCell id="44" value="Amazon&lt;br&gt;ElastiCache" style="outlineConnect=0;fontColor=#232F3E;gradientColor=#4D72F3;gradientDirection=north;fillColor=#3334B9;strokeColor=#ffffff;dashed=0;verticalLabelPosition=bottom;verticalAlign=top;align=center;html=1;fontSize=12;fontStyle=0;aspect=fixed;shape=mxgraph.aws4.resourceIcon;resIcon=mxgraph.aws4.elasticache;" parent="1" vertex="1">
                    <mxGeometry x="313.75" y="531.9999999999999" width="48" height="48" as="geometry"/>
                </mxCell>
                <mxCell id="50" value="Gitaly" style="outlineConnect=0;fontColor=#232F3E;gradientColor=none;fillColor=#D86613;strokeColor=none;dashed=0;verticalLabelPosition=bottom;verticalAlign=top;align=center;html=1;fontSize=12;fontStyle=0;aspect=fixed;pointerEvents=1;shape=mxgraph.aws4.instance2;" parent="1" vertex="1">
                    <mxGeometry x="490" y="681.75" width="48" height="48" as="geometry"/>
                </mxCell>
                <mxCell id="55" style="edgeStyle=orthogonalEdgeStyle;rounded=0;orthogonalLoop=1;jettySize=auto;html=1;fillColor=#f8cecc;strokeColor=#b85450;strokeWidth=2;" parent="1" source="51" target="50" edge="1">
                    <mxGeometry relative="1" as="geometry"/>
                </mxCell>
                <mxCell id="74" value="no TLS" style="edgeLabel;html=1;align=center;verticalAlign=middle;resizable=0;points=[];" vertex="1" connectable="0" parent="55">
                    <mxGeometry x="0.0493" y="2" relative="1" as="geometry">
                        <mxPoint x="-2" as="offset"/>
                    </mxGeometry>
                </mxCell>
                <mxCell id="51" value="Praefect" style="outlineConnect=0;fontColor=#232F3E;gradientColor=none;fillColor=#D86613;strokeColor=none;dashed=0;verticalLabelPosition=bottom;verticalAlign=top;align=center;html=1;fontSize=12;fontStyle=0;aspect=fixed;pointerEvents=1;shape=mxgraph.aws4.instance2;" parent="1" vertex="1">
                    <mxGeometry x="490" y="532.75" width="48" height="48" as="geometry"/>
                </mxCell>
                <mxCell id="77" value="" style="html=1;aspect=fixed;shadow=0;align=center;verticalAlign=top;fillColor=#2D9C5E;shape=mxgraph.gcp2.check;strokeColor=#FFFFFF;" vertex="1" parent="1">
                    <mxGeometry x="177.75" y="520" width="37.5" height="30" as="geometry"/>
                </mxCell>
                <mxCell id="78" value="" style="html=1;aspect=fixed;shadow=0;align=center;verticalAlign=top;fillColor=#2D9C5E;shape=mxgraph.gcp2.check;strokeColor=#FFFFFF;" vertex="1" parent="1">
                    <mxGeometry x="267.75" y="520" width="37.5" height="30" as="geometry"/>
                </mxCell>
                <mxCell id="79" value="" style="html=1;aspect=fixed;shadow=0;align=center;verticalAlign=top;fillColor=#2D9C5E;shape=mxgraph.gcp2.check;strokeColor=#FFFFFF;" vertex="1" parent="1">
                    <mxGeometry x="343.75" y="520" width="37.5" height="30" as="geometry"/>
                </mxCell>
                <mxCell id="80" value="" style="html=1;aspect=fixed;shadow=0;align=center;verticalAlign=top;fillColor=#2D9C5E;shape=mxgraph.gcp2.check;strokeColor=#FFFFFF;" vertex="1" parent="1">
                    <mxGeometry x="514" y="520" width="37.5" height="30" as="geometry"/>
                </mxCell>
                <mxCell id="81" value="" style="html=1;aspect=fixed;shadow=0;align=center;verticalAlign=top;fillColor=#2D9C5E;shape=mxgraph.gcp2.check;strokeColor=#FFFFFF;" vertex="1" parent="1">
                    <mxGeometry x="514" y="670" width="37.5" height="30" as="geometry"/>
                </mxCell>
                <mxCell id="84" value="&lt;br&gt;&lt;br&gt;Encrypted &lt;br&gt;at rest" style="html=1;aspect=fixed;shadow=0;align=center;verticalAlign=top;fillColor=#2D9C5E;shape=mxgraph.gcp2.check;strokeColor=#FFFFFF;fontSize=11;" vertex="1" parent="1">
                    <mxGeometry x="660" y="400" width="37.5" height="30" as="geometry"/>
                </mxCell>
                <mxCell id="85" style="edgeStyle=orthogonalEdgeStyle;rounded=0;orthogonalLoop=1;jettySize=auto;html=1;strokeWidth=2;fillColor=#d5e8d4;strokeColor=#82b366;" edge="1" parent="1">
                    <mxGeometry relative="1" as="geometry">
                        <Array as="points">
                            <mxPoint x="630" y="480"/>
                            <mxPoint x="630" y="480"/>
                        </Array>
                        <mxPoint x="600" y="480" as="sourcePoint"/>
                        <mxPoint x="760" y="480" as="targetPoint"/>
                    </mxGeometry>
                </mxCell>
                <mxCell id="86" value="Encrypted&lt;br&gt;in transit" style="edgeLabel;html=1;align=center;verticalAlign=middle;resizable=0;points=[];" vertex="1" connectable="0" parent="85">
                    <mxGeometry x="-0.5684" y="1" relative="1" as="geometry">
                        <mxPoint x="45" y="1" as="offset"/>
                    </mxGeometry>
                </mxCell>
                <mxCell id="87" style="edgeStyle=orthogonalEdgeStyle;rounded=0;orthogonalLoop=1;jettySize=auto;html=1;strokeWidth=2;fillColor=#f8cecc;strokeColor=#b85450;" edge="1" parent="1">
                    <mxGeometry relative="1" as="geometry">
                        <Array as="points">
                            <mxPoint x="628.75" y="520"/>
                            <mxPoint x="628.75" y="520"/>
                        </Array>
                        <mxPoint x="598.75" y="520" as="sourcePoint"/>
                        <mxPoint x="760" y="520" as="targetPoint"/>
                    </mxGeometry>
                </mxCell>
                <mxCell id="88" value="Not encrypted&lt;br&gt;in transit" style="edgeLabel;html=1;align=center;verticalAlign=middle;resizable=0;points=[];" vertex="1" connectable="0" parent="87">
                    <mxGeometry x="-0.5684" y="1" relative="1" as="geometry">
                        <mxPoint x="45" y="1" as="offset"/>
                    </mxGeometry>
                </mxCell>
                <mxCell id="90" value="In-cluster&lt;br&gt;runner" style="outlineConnect=0;fontColor=#232F3E;gradientColor=none;fillColor=#D86613;strokeColor=none;dashed=0;verticalLabelPosition=bottom;verticalAlign=top;align=center;html=1;fontSize=12;fontStyle=0;aspect=fixed;pointerEvents=1;shape=mxgraph.aws4.instance2;" vertex="1" parent="1">
                    <mxGeometry x="400" y="532" width="48" height="48" as="geometry"/>
                </mxCell>
                <mxCell id="92" style="edgeStyle=orthogonalEdgeStyle;rounded=0;orthogonalLoop=1;jettySize=auto;html=1;fontSize=11;fillColor=#d5e8d4;strokeColor=#82b366;strokeWidth=2;entryX=1;entryY=0.5;entryDx=0;entryDy=0;" edge="1" parent="1" source="90" target="94">
                    <mxGeometry relative="1" as="geometry">
                        <mxPoint x="504" y="532.75" as="sourcePoint"/>
                        <mxPoint x="328" y="370" as="targetPoint"/>
                        <Array as="points">
                            <mxPoint x="424" y="480"/>
                            <mxPoint x="450" y="480"/>
                            <mxPoint x="450" y="354"/>
                            <mxPoint x="361" y="354"/>
                        </Array>
                    </mxGeometry>
                </mxCell>
                <mxCell id="57" style="edgeStyle=orthogonalEdgeStyle;rounded=0;orthogonalLoop=1;jettySize=auto;html=1;strokeWidth=2;fillColor=#d5e8d4;strokeColor=#82b366;entryX=1;entryY=0.5;entryDx=0;entryDy=0;" parent="1" source="50" target="94" edge="1">
                    <mxGeometry relative="1" as="geometry">
                        <Array as="points">
                            <mxPoint x="470" y="706"/>
                            <mxPoint x="470" y="480"/>
                            <mxPoint x="450" y="480"/>
                            <mxPoint x="450" y="354"/>
                            <mxPoint x="361" y="354"/>
                        </Array>
                        <mxPoint x="328" y="370" as="targetPoint"/>
                    </mxGeometry>
                </mxCell>
                <mxCell id="83" value="HTTPS" style="edgeLabel;html=1;align=center;verticalAlign=middle;resizable=0;points=[];" vertex="1" connectable="0" parent="57">
                    <mxGeometry x="0.1038" y="-2" relative="1" as="geometry">
                        <mxPoint x="-4" y="-40.089999999999996" as="offset"/>
                    </mxGeometry>
                </mxCell>
                <mxCell id="93" value="" style="html=1;aspect=fixed;shadow=0;align=center;verticalAlign=top;fillColor=#2D9C5E;shape=mxgraph.gcp2.check;strokeColor=#FFFFFF;" vertex="1" parent="1">
                    <mxGeometry x="424" y="519.25" width="37.5" height="30" as="geometry"/>
                </mxCell>
                <mxCell id="98" value="" style="group" vertex="1" connectable="0" parent="1">
                    <mxGeometry x="246.75" y="300" width="114" height="108.74000000000001" as="geometry"/>
                </mxCell>
                <mxCell id="94" value="" style="shape=image;verticalLabelPosition=bottom;labelBackgroundColor=#ffffff;verticalAlign=top;aspect=fixed;imageAspect=0;image=https://about.gitlab.com/images/press/logo/png/gitlab-icon-rgb.png;" vertex="1" parent="98">
                    <mxGeometry width="114" height="108.74" as="geometry"/>
                </mxCell>
                <mxCell id="97" value="GitLab" style="text;html=1;align=center;verticalAlign=middle;resizable=0;points=[];autosize=1;fontSize=11;" vertex="1" parent="98">
                    <mxGeometry x="32" y="88.74000000000001" width="50" height="20" as="geometry"/>
                </mxCell>
                <mxCell id="99" style="edgeStyle=orthogonalEdgeStyle;rounded=0;orthogonalLoop=1;jettySize=auto;html=1;strokeWidth=2;fillColor=#d5e8d4;strokeColor=#82b366;" edge="1" parent="1" target="44">
                    <mxGeometry relative="1" as="geometry">
                        <Array as="points">
                            <mxPoint x="304" y="480"/>
                            <mxPoint x="340" y="480"/>
                        </Array>
                        <mxPoint x="304" y="408" as="sourcePoint"/>
                        <mxPoint x="340" y="531.9999999999999" as="targetPoint"/>
                    </mxGeometry>
                </mxCell>
                <mxCell id="100" value="TLS" style="edgeLabel;html=1;align=center;verticalAlign=middle;resizable=0;points=[];" vertex="1" connectable="0" parent="99">
                    <mxGeometry x="-0.5684" y="1" relative="1" as="geometry">
                        <mxPoint x="-1.27" y="-2.4799999999999995" as="offset"/>
                    </mxGeometry>
                </mxCell>
                <mxCell id="102" value="HTTPS" style="edgeStyle=orthogonalEdgeStyle;rounded=0;orthogonalLoop=1;jettySize=auto;html=1;strokeWidth=2;fontSize=11;fillColor=#d5e8d4;strokeColor=#82b366;" edge="1" parent="1">
                    <mxGeometry x="-0.0533" relative="1" as="geometry">
                        <mxPoint x="303.75" y="206.9706704088792" as="sourcePoint"/>
                        <mxPoint x="303.75" y="319" as="targetPoint"/>
                        <mxPoint as="offset"/>
                    </mxGeometry>
                </mxCell>
                <mxCell id="101" value="User" style="outlineConnect=0;fontColor=#232F3E;gradientColor=none;fillColor=#232F3E;strokeColor=none;dashed=0;verticalLabelPosition=bottom;verticalAlign=top;align=center;html=1;fontSize=12;fontStyle=0;aspect=fixed;pointerEvents=1;shape=mxgraph.aws4.user;direction=east;" vertex="1" parent="1">
                    <mxGeometry x="284.75" y="143" width="38" height="38" as="geometry"/>
                </mxCell>
            </root>
        </mxGraphModel>
    </diagram>
</mxfile>